<svg width="168" height="40" viewBox="0 0 168 40" fill="none" xmlns="http://www.w3.org/2000/svg">
<path d="M8.7943 19.2802L4.69701 12.1876C2.47325 13.605 1 16.0896 1 18.9244C1 23.3434 4.58026 26.9231 9 26.9231H21.2085L16.7943 19.2802H8.7943Z" fill="#305FBB"/>
<path d="M29.303 25.6613C31.5268 24.2439 33 21.7592 33 18.9244C33 16.2008 31.6379 13.7995 29.5587 12.3543H21.6199L29.303 25.6613Z" fill="#305FBB"/>
<path d="M17.4114 18.9245L22.0313 26.9231H25C25.5281 26.9231 26.0507 26.8675 26.5511 26.773C27.3072 26.6229 28.0243 26.3672 28.6859 26.0226L20.9972 12.7157L17.4114 18.9245Z" fill="#162870"/>
<path d="M16.6831 4.90046C14.3426 3.68872 11.4517 3.65537 9 5.07278C6.64281 6.4346 5.24183 8.81362 5.03058 11.3372L9 18.213L16.6831 4.90046Z" fill="#162870"/>
<path d="M16.7943 18.5687L20.7915 11.6429H28.9861C28.8694 9.00818 27.4517 6.4902 25 5.07279C22.6428 3.71097 19.8798 3.68874 17.5893 4.76708L9.61709 18.5687H16.7943Z" fill="#6C9BE3"/>
<path d="M42.3525 10.0859C43.2197 10.0859 43.9639 10.2646 44.585 10.6221C45.2061 10.9795 45.6836 11.4863 46.0176 12.1426C46.3516 12.7988 46.5186 13.584 46.5186 14.498V15.6055H40.0234C40.0469 16.5488 40.2988 17.2754 40.7793 17.7852C41.2656 18.2949 41.9453 18.5498 42.8184 18.5498C43.4395 18.5498 43.9961 18.4912 44.4883 18.374C44.9863 18.251 45.499 18.0723 46.0264 17.8379V19.5166C45.54 19.7451 45.0449 19.9121 44.541 20.0176C44.0371 20.123 43.4336 20.1758 42.7305 20.1758C41.7754 20.1758 40.9346 19.9912 40.208 19.6221C39.4873 19.2471 38.9219 18.6904 38.5117 17.9521C38.1074 17.2139 37.9053 16.2969 37.9053 15.2012C37.9053 14.1113 38.0898 13.1855 38.459 12.4238C38.8281 11.6621 39.3467 11.082 40.0146 10.6836C40.6826 10.2852 41.4619 10.0859 42.3525 10.0859ZM42.3525 11.6416C41.7021 11.6416 41.1748 11.8525 40.7705 12.2744C40.3721 12.6963 40.1377 13.3145 40.0674 14.1289H44.4971C44.4912 13.6426 44.4092 13.2119 44.251 12.8369C44.0986 12.4619 43.8643 12.1689 43.5479 11.958C43.2373 11.7471 42.8389 11.6416 42.3525 11.6416ZM57.1709 20H47.9336V18.5498L54.4727 8.94336H48.1357V7.15039H56.9951V8.5918L50.4561 18.207H57.1709V20ZM63.0947 10.0859C63.9619 10.0859 64.7061 10.2646 65.3271 10.6221C65.9482 10.9795 66.4258 11.4863 66.7598 12.1426C67.0938 12.7988 67.2607 13.584 67.2607 14.498V15.6055H60.7656C60.7891 16.5488 61.041 17.2754 61.5215 17.7852C62.0078 18.2949 62.6875 18.5498 63.5605 18.5498C64.1816 18.5498 64.7383 18.4912 65.2305 18.374C65.7285 18.251 66.2412 18.0723 66.7686 17.8379V19.5166C66.2822 19.7451 65.7871 19.9121 65.2832 20.0176C64.7793 20.123 64.1758 20.1758 63.4727 20.1758C62.5176 20.1758 61.6768 19.9912 60.9502 19.6221C60.2295 19.2471 59.6641 18.6904 59.2539 17.9521C58.8496 17.2139 58.6475 16.2969 58.6475 15.2012C58.6475 14.1113 58.832 13.1855 59.2012 12.4238C59.5703 11.6621 60.0889 11.082 60.7568 10.6836C61.4248 10.2852 62.2041 10.0859 63.0947 10.0859ZM63.0947 11.6416C62.4443 11.6416 61.917 11.8525 61.5127 12.2744C61.1143 12.6963 60.8799 13.3145 60.8096 14.1289H65.2393C65.2334 13.6426 65.1514 13.2119 64.9932 12.8369C64.8408 12.4619 64.6064 12.1689 64.29 11.958C63.9795 11.7471 63.5811 11.6416 63.0947 11.6416ZM73.4658 10.0859C74.333 10.0859 75.0771 10.2646 75.6982 10.6221C76.3193 10.9795 76.7969 11.4863 77.1309 12.1426C77.4648 12.7988 77.6318 13.584 77.6318 14.498V15.6055H71.1367C71.1602 16.5488 71.4121 17.2754 71.8926 17.7852C72.3789 18.2949 73.0586 18.5498 73.9316 18.5498C74.5527 18.5498 75.1094 18.4912 75.6016 18.374C76.0996 18.251 76.6123 18.0723 77.1396 17.8379V19.5166C76.6533 19.7451 76.1582 19.9121 75.6543 20.0176C75.1504 20.123 74.5469 20.1758 73.8438 20.1758C72.8887 20.1758 72.0479 19.9912 71.3213 19.6221C70.6006 19.2471 70.0352 18.6904 69.625 17.9521C69.2207 17.2139 69.0186 16.2969 69.0186 15.2012C69.0186 14.1113 69.2031 13.1855 69.5723 12.4238C69.9414 11.6621 70.46 11.082 71.1279 10.6836C71.7959 10.2852 72.5752 10.0859 73.4658 10.0859ZM73.4658 11.6416C72.8154 11.6416 72.2881 11.8525 71.8838 12.2744C71.4854 12.6963 71.251 13.3145 71.1807 14.1289H75.6104C75.6045 13.6426 75.5225 13.2119 75.3643 12.8369C75.2119 12.4619 74.9775 12.1689 74.6611 11.958C74.3506 11.7471 73.9521 11.6416 73.4658 11.6416ZM84.8477 20V7.15039H86.957V20H84.8477ZM95.21 10.0859C96.3057 10.0859 97.1582 10.3701 97.7676 10.9385C98.3828 11.501 98.6904 12.4062 98.6904 13.6543V20H96.625V14.041C96.625 13.2852 96.4697 12.7197 96.1592 12.3447C95.8486 11.9639 95.3682 11.7734 94.7178 11.7734C93.7744 11.7734 93.1182 12.0635 92.749 12.6436C92.3857 13.2236 92.2041 14.0645 92.2041 15.166V20H90.1387V10.2705H91.7471L92.0371 11.5889H92.1514C92.3623 11.249 92.623 10.9707 92.9336 10.7539C93.25 10.5312 93.6016 10.3643 93.9883 10.2529C94.3809 10.1416 94.7881 10.0859 95.21 10.0859ZM106.653 10.0859C107.749 10.0859 108.602 10.3701 109.211 10.9385C109.826 11.501 110.134 12.4062 110.134 13.6543V20H108.068V14.041C108.068 13.2852 107.913 12.7197 107.603 12.3447C107.292 11.9639 106.812 11.7734 106.161 11.7734C105.218 11.7734 104.562 12.0635 104.192 12.6436C103.829 13.2236 103.647 14.0645 103.647 15.166V20H101.582V10.2705H103.19L103.48 11.5889H103.595C103.806 11.249 104.066 10.9707 104.377 10.7539C104.693 10.5312 105.045 10.3643 105.432 10.2529C105.824 10.1416 106.231 10.0859 106.653 10.0859ZM116.84 10.0859C118.07 10.0859 118.999 10.3584 119.626 10.9033C120.259 11.4482 120.575 12.2979 120.575 13.4521V20H119.107L118.712 18.6201H118.642C118.366 18.9717 118.082 19.2617 117.789 19.4902C117.496 19.7188 117.156 19.8887 116.77 20C116.389 20.1172 115.923 20.1758 115.372 20.1758C114.792 20.1758 114.273 20.0703 113.816 19.8594C113.359 19.6426 112.999 19.3145 112.735 18.875C112.472 18.4355 112.34 17.8789 112.34 17.2051C112.34 16.2031 112.712 15.4502 113.456 14.9463C114.206 14.4424 115.337 14.1641 116.849 14.1113L118.536 14.0498V13.54C118.536 12.8662 118.378 12.3857 118.062 12.0986C117.751 11.8115 117.312 11.668 116.743 11.668C116.257 11.668 115.785 11.7383 115.328 11.8789C114.871 12.0195 114.426 12.1924 113.992 12.3975L113.324 10.9385C113.799 10.6865 114.338 10.4814 114.941 10.3232C115.551 10.165 116.184 10.0859 116.84 10.0859ZM118.527 15.3506L117.271 15.3945C116.239 15.4297 115.516 15.6055 115.1 15.9219C114.684 16.2383 114.476 16.6719 114.476 17.2227C114.476 17.7031 114.619 18.0547 114.906 18.2773C115.193 18.4941 115.571 18.6025 116.04 18.6025C116.755 18.6025 117.347 18.4004 117.815 17.9961C118.29 17.5859 118.527 16.9854 118.527 16.1943V15.3506ZM125.541 20H123.467V6.32422H125.541V20ZM127.026 10.2705H129.276L131.271 15.8252C131.359 16.0771 131.438 16.3262 131.509 16.5723C131.585 16.8125 131.649 17.0498 131.702 17.2842C131.761 17.5186 131.808 17.7529 131.843 17.9873H131.896C131.954 17.6826 132.036 17.3428 132.142 16.9678C132.253 16.5869 132.376 16.2061 132.511 15.8252L134.427 10.2705H136.65L132.476 21.3359C132.235 21.9688 131.939 22.5078 131.588 22.9531C131.242 23.4043 130.832 23.7441 130.357 23.9727C129.883 24.207 129.341 24.3242 128.731 24.3242C128.438 24.3242 128.184 24.3066 127.967 24.2715C127.75 24.2422 127.565 24.21 127.413 24.1748V22.5225C127.536 22.5518 127.691 22.5781 127.879 22.6016C128.066 22.625 128.26 22.6367 128.459 22.6367C128.828 22.6367 129.147 22.5635 129.417 22.417C129.687 22.2705 129.915 22.0625 130.103 21.793C130.29 21.5293 130.445 21.2275 130.568 20.8877L130.911 19.9736L127.026 10.2705ZM141.748 18.5059C142.018 18.5059 142.284 18.4824 142.548 18.4355C142.812 18.3828 143.052 18.3213 143.269 18.251V19.8154C143.04 19.915 142.744 20 142.381 20.0703C142.018 20.1406 141.64 20.1758 141.247 20.1758C140.696 20.1758 140.201 20.085 139.762 19.9033C139.322 19.7158 138.974 19.3965 138.716 18.9453C138.458 18.4941 138.329 17.8701 138.329 17.0732V11.8438H137.002V10.9209L138.426 10.1914L139.103 8.1084H140.403V10.2705H143.189V11.8438H140.403V17.0469C140.403 17.5391 140.526 17.9053 140.772 18.1455C141.019 18.3857 141.344 18.5059 141.748 18.5059ZM147.312 10.2705V20H145.246V10.2705H147.312ZM146.292 6.54395C146.608 6.54395 146.881 6.62891 147.109 6.79883C147.344 6.96875 147.461 7.26172 147.461 7.67773C147.461 8.08789 147.344 8.38086 147.109 8.55664C146.881 8.72656 146.608 8.81152 146.292 8.81152C145.964 8.81152 145.686 8.72656 145.457 8.55664C145.234 8.38086 145.123 8.08789 145.123 7.67773C145.123 7.26172 145.234 6.96875 145.457 6.79883C145.686 6.62891 145.964 6.54395 146.292 6.54395ZM154.193 20.1758C153.273 20.1758 152.477 19.9971 151.803 19.6396C151.129 19.2822 150.61 18.7344 150.247 17.9961C149.884 17.2578 149.702 16.3203 149.702 15.1836C149.702 14 149.901 13.0332 150.3 12.2832C150.698 11.5332 151.249 10.9795 151.952 10.6221C152.661 10.2646 153.473 10.0859 154.387 10.0859C154.967 10.0859 155.491 10.1445 155.96 10.2617C156.435 10.373 156.836 10.5107 157.164 10.6748L156.549 12.3271C156.191 12.1807 155.825 12.0576 155.45 11.958C155.075 11.8584 154.715 11.8086 154.369 11.8086C153.801 11.8086 153.326 11.9346 152.945 12.1865C152.57 12.4385 152.289 12.8135 152.102 13.3115C151.92 13.8096 151.829 14.4277 151.829 15.166C151.829 15.8809 151.923 16.4844 152.11 16.9766C152.298 17.4629 152.576 17.832 152.945 18.084C153.314 18.3301 153.769 18.4531 154.308 18.4531C154.841 18.4531 155.318 18.3887 155.74 18.2598C156.162 18.1309 156.561 17.9639 156.936 17.7588V19.5518C156.566 19.7627 156.171 19.918 155.749 20.0176C155.327 20.123 154.809 20.1758 154.193 20.1758ZM165.76 17.2227C165.76 17.8613 165.604 18.4004 165.294 18.8398C164.983 19.2793 164.529 19.6133 163.932 19.8418C163.34 20.0645 162.613 20.1758 161.752 20.1758C161.072 20.1758 160.486 20.126 159.994 20.0264C159.508 19.9326 159.048 19.7861 158.614 19.5869V17.8027C159.077 18.0195 159.596 18.207 160.17 18.3652C160.75 18.5234 161.298 18.6025 161.813 18.6025C162.493 18.6025 162.982 18.4971 163.281 18.2861C163.58 18.0693 163.729 17.7822 163.729 17.4248C163.729 17.2139 163.668 17.0264 163.545 16.8623C163.428 16.6924 163.205 16.5195 162.877 16.3438C162.555 16.1621 162.08 15.9453 161.453 15.6934C160.838 15.4473 160.319 15.2012 159.897 14.9551C159.476 14.709 159.156 14.4131 158.939 14.0674C158.723 13.7158 158.614 13.2676 158.614 12.7227C158.614 11.8613 158.954 11.208 159.634 10.7627C160.319 10.3115 161.225 10.0859 162.35 10.0859C162.947 10.0859 163.51 10.1475 164.037 10.2705C164.57 10.3877 165.092 10.5605 165.602 10.7891L164.951 12.3447C164.512 12.1514 164.069 11.9932 163.624 11.8701C163.185 11.7412 162.736 11.6768 162.279 11.6768C161.746 11.6768 161.339 11.7588 161.058 11.9229C160.782 12.0869 160.645 12.3213 160.645 12.626C160.645 12.8545 160.712 13.0479 160.847 13.2061C160.981 13.3643 161.213 13.5225 161.541 13.6807C161.875 13.8389 162.338 14.0352 162.93 14.2695C163.51 14.4922 164.011 14.7266 164.433 14.9727C164.86 15.2129 165.188 15.5088 165.417 15.8604C165.646 16.2119 165.76 16.666 165.76 17.2227Z" fill="#1F1F1F"/>
<path d="M86.0127 28.8613C86.9339 28.8613 87.6061 29.0501 88.0293 29.4277C88.4525 29.8053 88.6641 30.3343 88.6641 31.0146C88.6641 31.3239 88.6152 31.6185 88.5176 31.8984C88.4232 32.1751 88.2669 32.4209 88.0488 32.6357C87.8307 32.8473 87.5426 33.015 87.1846 33.1387C86.8298 33.2624 86.3919 33.3242 85.8711 33.3242H85.1094V36H83.9375V28.8613H86.0127ZM85.9346 29.833H85.1094V32.3477H85.749C86.1169 32.3477 86.4294 32.3053 86.6865 32.2207C86.9437 32.1328 87.139 31.9945 87.2725 31.8057C87.4059 31.6169 87.4727 31.3678 87.4727 31.0586C87.4727 30.6452 87.3473 30.3376 87.0967 30.1357C86.8493 29.9339 86.4619 29.833 85.9346 29.833ZM95.1578 33.2852C95.1578 33.7344 95.0992 34.1331 94.982 34.4814C94.8648 34.8298 94.6939 35.1243 94.4693 35.3652C94.2447 35.6029 93.9745 35.7852 93.6588 35.9121C93.343 36.0358 92.9866 36.0977 92.5895 36.0977C92.2184 36.0977 91.8782 36.0358 91.5689 35.9121C91.2597 35.7852 90.9911 35.6029 90.7633 35.3652C90.5387 35.1243 90.3645 34.8298 90.2408 34.4814C90.1171 34.1331 90.0553 33.7344 90.0553 33.2852C90.0553 32.6895 90.1578 32.1849 90.3629 31.7715C90.5712 31.3548 90.8674 31.0374 91.2516 30.8193C91.6357 30.6012 92.093 30.4922 92.6236 30.4922C93.1217 30.4922 93.5611 30.6012 93.942 30.8193C94.3229 31.0374 94.6207 31.3548 94.8355 31.7715C95.0504 32.1882 95.1578 32.6927 95.1578 33.2852ZM91.2369 33.2852C91.2369 33.679 91.2841 34.016 91.3785 34.2959C91.4762 34.5758 91.6259 34.7907 91.8277 34.9404C92.0296 35.0869 92.29 35.1602 92.609 35.1602C92.928 35.1602 93.1884 35.0869 93.3902 34.9404C93.5921 34.7907 93.7402 34.5758 93.8346 34.2959C93.929 34.016 93.9762 33.679 93.9762 33.2852C93.9762 32.8913 93.929 32.5576 93.8346 32.2842C93.7402 32.0075 93.5921 31.7975 93.3902 31.6543C93.1884 31.5078 92.9264 31.4346 92.6041 31.4346C92.1288 31.4346 91.7822 31.5941 91.5641 31.9131C91.346 32.2321 91.2369 32.6895 91.2369 33.2852ZM101.295 35.9951L100.612 33.4805C100.579 33.3568 100.54 33.207 100.494 33.0312C100.449 32.8555 100.403 32.6748 100.358 32.4893C100.312 32.3005 100.27 32.1263 100.231 31.9668C100.195 31.8073 100.167 31.6836 100.148 31.5957H100.109C100.092 31.6836 100.066 31.8073 100.03 31.9668C99.9947 32.1263 99.954 32.3005 99.9084 32.4893C99.8628 32.6781 99.8173 32.862 99.7717 33.041C99.7294 33.2201 99.6903 33.373 99.6545 33.5L98.9367 35.9951H97.677L96.1633 30.5898H97.3254L98.0285 33.2754C98.0741 33.4577 98.118 33.6546 98.1604 33.8662C98.2059 34.0778 98.245 34.2796 98.2775 34.4717C98.3101 34.6637 98.3345 34.8216 98.3508 34.9453H98.3898C98.4029 34.8574 98.4208 34.7467 98.4436 34.6133C98.4663 34.4766 98.4924 34.335 98.5217 34.1885C98.551 34.0387 98.5803 33.8988 98.6096 33.7686C98.6389 33.6351 98.6665 33.5277 98.6926 33.4463L99.5227 30.5898H100.778L101.573 33.4463C101.609 33.57 101.648 33.7262 101.691 33.915C101.733 34.1006 101.77 34.2878 101.803 34.4766C101.839 34.6621 101.862 34.8167 101.871 34.9404H101.91C101.923 34.8298 101.946 34.68 101.979 34.4912C102.015 34.2992 102.055 34.0957 102.101 33.8809C102.146 33.6628 102.194 33.4609 102.242 33.2754L102.96 30.5898H104.103L102.579 35.9951H101.295ZM107.584 30.4922C108.066 30.4922 108.479 30.5915 108.824 30.79C109.169 30.9886 109.434 31.2702 109.62 31.6348C109.805 31.9993 109.898 32.4355 109.898 32.9434V33.5586H106.29C106.303 34.0827 106.443 34.4863 106.71 34.7695C106.98 35.0527 107.358 35.1943 107.843 35.1943C108.188 35.1943 108.497 35.1618 108.77 35.0967C109.047 35.0283 109.332 34.929 109.625 34.7988V35.7314C109.355 35.8584 109.08 35.9512 108.8 36.0098C108.52 36.0684 108.184 36.0977 107.794 36.0977C107.263 36.0977 106.796 35.9951 106.392 35.79C105.992 35.5817 105.678 35.2725 105.45 34.8623C105.225 34.4521 105.113 33.9427 105.113 33.334C105.113 32.7285 105.216 32.2142 105.421 31.791C105.626 31.3678 105.914 31.0456 106.285 30.8242C106.656 30.6029 107.089 30.4922 107.584 30.4922ZM107.584 31.3564C107.222 31.3564 106.929 31.4736 106.705 31.708C106.484 31.9424 106.353 32.2858 106.314 32.7383H108.775C108.772 32.4681 108.726 32.2288 108.638 32.0205C108.554 31.8122 108.424 31.6494 108.248 31.5322C108.075 31.415 107.854 31.3564 107.584 31.3564ZM114.331 30.4922C114.423 30.4922 114.522 30.4971 114.629 30.5068C114.737 30.5166 114.829 30.5296 114.908 30.5459L114.8 31.6201C114.732 31.6006 114.647 31.5859 114.546 31.5762C114.449 31.5664 114.361 31.5615 114.283 31.5615C114.078 31.5615 113.882 31.5957 113.697 31.6641C113.511 31.7292 113.347 31.8301 113.204 31.9668C113.06 32.1003 112.948 32.2679 112.867 32.4697C112.785 32.6715 112.745 32.9059 112.745 33.1729V36H111.592V30.5947H112.491L112.647 31.5469H112.701C112.808 31.3548 112.941 31.179 113.101 31.0195C113.26 30.86 113.443 30.7331 113.648 30.6387C113.856 30.541 114.084 30.4922 114.331 30.4922ZM118.462 30.4922C118.944 30.4922 119.357 30.5915 119.702 30.79C120.047 30.9886 120.312 31.2702 120.498 31.6348C120.684 31.9993 120.776 32.4355 120.776 32.9434V33.5586H117.168C117.181 34.0827 117.321 34.4863 117.588 34.7695C117.858 35.0527 118.236 35.1943 118.721 35.1943C119.066 35.1943 119.375 35.1618 119.648 35.0967C119.925 35.0283 120.21 34.929 120.503 34.7988V35.7314C120.233 35.8584 119.958 35.9512 119.678 36.0098C119.398 36.0684 119.062 36.0977 118.672 36.0977C118.141 36.0977 117.674 35.9951 117.271 35.79C116.87 35.5817 116.556 35.2725 116.328 34.8623C116.104 34.4521 115.991 33.9427 115.991 33.334C115.991 32.7285 116.094 32.2142 116.299 31.791C116.504 31.3678 116.792 31.0456 117.163 30.8242C117.534 30.6029 117.967 30.4922 118.462 30.4922ZM118.462 31.3564C118.101 31.3564 117.808 31.4736 117.583 31.708C117.362 31.9424 117.231 32.2858 117.192 32.7383H119.653C119.65 32.4681 119.604 32.2288 119.517 32.0205C119.432 31.8122 119.302 31.6494 119.126 31.5322C118.953 31.415 118.732 31.3564 118.462 31.3564ZM124.287 36.0977C123.642 36.0977 123.125 35.8633 122.734 35.3945C122.347 34.9225 122.153 34.2275 122.153 33.3096C122.153 32.3818 122.35 31.6803 122.744 31.2051C123.141 30.7298 123.663 30.4922 124.311 30.4922C124.585 30.4922 124.824 30.5296 125.029 30.6045C125.234 30.6761 125.41 30.7738 125.556 30.8975C125.706 31.0212 125.833 31.1595 125.937 31.3125H125.991C125.975 31.2116 125.955 31.0667 125.932 30.8779C125.913 30.6859 125.903 30.5085 125.903 30.3457V28.4023H127.055V36H126.157L125.952 35.2627H125.903C125.805 35.4189 125.682 35.5605 125.532 35.6875C125.385 35.8112 125.21 35.9105 125.004 35.9854C124.803 36.0602 124.563 36.0977 124.287 36.0977ZM124.609 35.165C125.101 35.165 125.447 35.0234 125.649 34.7402C125.851 34.457 125.955 34.0322 125.962 33.4658V33.3145C125.962 32.709 125.864 32.2451 125.669 31.9229C125.473 31.5973 125.117 31.4346 124.599 31.4346C124.186 31.4346 123.87 31.6022 123.652 31.9375C123.437 32.2695 123.33 32.7334 123.33 33.3291C123.33 33.9248 123.437 34.3805 123.652 34.6963C123.87 35.0088 124.189 35.165 124.609 35.165ZM133.246 28.4023V30.2334C133.246 30.445 133.239 30.6533 133.226 30.8584C133.217 31.0602 133.207 31.2181 133.197 31.332H133.246C133.392 31.0977 133.596 30.9007 133.856 30.7412C134.12 30.5785 134.457 30.4971 134.867 30.4971C135.508 30.4971 136.024 30.7331 136.415 31.2051C136.805 31.6738 137.001 32.3688 137.001 33.29C137.001 33.902 136.911 34.4163 136.732 34.833C136.553 35.2497 136.301 35.5654 135.975 35.7803C135.653 35.9919 135.274 36.0977 134.838 36.0977C134.428 36.0977 134.096 36.0228 133.842 35.873C133.591 35.7201 133.394 35.5426 133.251 35.3408H133.168L132.958 36H132.098V28.4023H133.246ZM134.564 31.4297C134.239 31.4297 133.98 31.4948 133.788 31.625C133.599 31.7552 133.462 31.9505 133.378 32.2109C133.293 32.4681 133.249 32.7952 133.246 33.1924V33.2949C133.246 33.8971 133.34 34.3577 133.529 34.6768C133.721 34.9958 134.069 35.1553 134.574 35.1553C134.974 35.1553 135.282 34.9941 135.497 34.6719C135.712 34.3464 135.819 33.8809 135.819 33.2754C135.819 32.6634 135.712 32.2028 135.497 31.8936C135.285 31.5843 134.974 31.4297 134.564 31.4297ZM137.913 30.5947H139.163L140.272 33.6807C140.321 33.8206 140.365 33.959 140.404 34.0957C140.446 34.2292 140.482 34.361 140.511 34.4912C140.544 34.6214 140.57 34.7516 140.589 34.8818H140.619C140.651 34.7126 140.697 34.5238 140.755 34.3154C140.817 34.1038 140.885 33.8923 140.96 33.6807L142.025 30.5947H143.26L140.941 36.7422C140.807 37.0938 140.643 37.3932 140.448 37.6406C140.256 37.8913 140.028 38.0801 139.764 38.207C139.5 38.3372 139.199 38.4023 138.861 38.4023C138.698 38.4023 138.556 38.3926 138.436 38.373C138.315 38.3568 138.213 38.3389 138.128 38.3193V37.4014C138.197 37.4176 138.283 37.4323 138.387 37.4453C138.491 37.4583 138.599 37.4648 138.709 37.4648C138.914 37.4648 139.092 37.4242 139.242 37.3428C139.391 37.2614 139.518 37.1458 139.622 36.9961C139.727 36.8496 139.813 36.682 139.881 36.4932L140.072 35.9854L137.913 30.5947ZM149.617 32.1182L151.311 28.8613H152.576L150.203 33.2266V36H149.036V33.2705L146.658 28.8613H147.932L149.617 32.1182ZM156.955 29.7549C156.613 29.7549 156.307 29.8167 156.037 29.9404C155.77 30.0641 155.544 30.2432 155.359 30.4775C155.173 30.7087 155.031 30.9902 154.934 31.3223C154.836 31.651 154.787 32.0221 154.787 32.4355C154.787 32.9889 154.865 33.4658 155.022 33.8662C155.178 34.2633 155.416 34.5693 155.735 34.7842C156.054 34.9958 156.457 35.1016 156.946 35.1016C157.248 35.1016 157.543 35.0723 157.829 35.0137C158.116 34.9551 158.412 34.8753 158.718 34.7744V35.7705C158.428 35.8844 158.135 35.9674 157.839 36.0195C157.543 36.0716 157.201 36.0977 156.814 36.0977C156.085 36.0977 155.479 35.9463 154.997 35.6436C154.519 35.3408 154.161 34.9144 153.923 34.3643C153.689 33.8141 153.571 33.1696 153.571 32.4307C153.571 31.8903 153.646 31.3955 153.796 30.9463C153.946 30.4971 154.164 30.1097 154.45 29.7842C154.737 29.4554 155.09 29.2031 155.51 29.0273C155.933 28.8483 156.417 28.7588 156.96 28.7588C157.318 28.7588 157.67 28.7995 158.015 28.8809C158.363 28.959 158.685 29.0713 158.982 29.2178L158.571 30.1846C158.324 30.0674 158.065 29.9665 157.795 29.8818C157.525 29.7972 157.245 29.7549 156.955 29.7549ZM164.772 34.0566C164.772 34.4798 164.668 34.8444 164.46 35.1504C164.255 35.4564 163.958 35.6908 163.571 35.8535C163.187 36.0163 162.728 36.0977 162.194 36.0977C161.934 36.0977 161.685 36.083 161.447 36.0537C161.209 36.0244 160.985 35.9821 160.773 35.9268C160.565 35.8682 160.374 35.7982 160.202 35.7168V34.6133C160.492 34.7402 160.816 34.8558 161.174 34.96C161.532 35.0609 161.896 35.1113 162.267 35.1113C162.57 35.1113 162.821 35.0723 163.019 34.9941C163.221 34.9128 163.371 34.7988 163.469 34.6523C163.566 34.5026 163.615 34.3285 163.615 34.1299C163.615 33.9183 163.558 33.7393 163.444 33.5928C163.33 33.4463 163.158 33.3128 162.927 33.1924C162.699 33.0687 162.412 32.9368 162.067 32.7969C161.833 32.7025 161.608 32.5951 161.393 32.4746C161.182 32.3542 160.993 32.2126 160.827 32.0498C160.661 31.887 160.529 31.695 160.431 31.4736C160.337 31.249 160.29 30.9854 160.29 30.6826C160.29 30.279 160.386 29.9339 160.578 29.6475C160.773 29.361 161.047 29.1413 161.398 28.9883C161.753 28.8353 162.166 28.7588 162.638 28.7588C163.013 28.7588 163.364 28.7979 163.693 28.876C164.025 28.9541 164.351 29.0648 164.67 29.208L164.299 30.1504C164.006 30.0299 163.721 29.9339 163.444 29.8623C163.171 29.7907 162.891 29.7549 162.604 29.7549C162.357 29.7549 162.147 29.7923 161.974 29.8672C161.802 29.9421 161.67 30.0479 161.579 30.1846C161.491 30.318 161.447 30.4775 161.447 30.6631C161.447 30.8714 161.498 31.0472 161.598 31.1904C161.703 31.3304 161.862 31.459 162.077 31.5762C162.295 31.6934 162.575 31.8236 162.917 31.9668C163.311 32.1296 163.644 32.3005 163.918 32.4795C164.194 32.6585 164.406 32.8734 164.553 33.124C164.699 33.3714 164.772 33.6823 164.772 34.0566Z" fill="black"/>
</svg>
