<svg xmlns="http://www.w3.org/2000/svg" version="1.1" xmlns:xlink="http://www.w3.org/1999/xlink" xmlns:svgjs="http://svgjs.dev/svgjs" width="32" height="23"><svg width="32" height="23" viewBox="0 0 32 23" fill="none" xmlns="http://www.w3.org/2000/svg">
<path d="M7.7943 15.2802L3.69701 8.1876C1.47325 9.605 0 12.0896 0 14.9244C0 19.3434 3.58026 22.9231 8 22.9231H20.2085L15.7943 15.2802H7.7943Z" fill="#305FBB"></path>
<path d="M28.303 21.6613C30.5268 20.2439 32 17.7592 32 14.9244C32 12.2008 30.6379 9.79953 28.5587 8.35434H20.6199L28.303 21.6613Z" fill="#305FBB"></path>
<path d="M16.4114 14.9245L21.0313 22.9231H24C24.5281 22.9231 25.0507 22.8675 25.5511 22.773C26.3072 22.6229 27.0243 22.3672 27.6859 22.0226L19.9972 8.71567L16.4114 14.9245Z" fill="#162870"></path>
<path d="M15.6831 0.900464C13.3426 -0.311279 10.4517 -0.34463 8 1.07278C5.64281 2.4346 4.24183 4.81362 4.03058 7.33716L8 14.213L15.6831 0.900464Z" fill="#162870"></path>
<path d="M15.7943 14.5687L19.7915 7.64288H27.9861C27.8694 5.00818 26.4517 2.4902 24 1.07279C21.6428 -0.289031 18.8798 -0.311264 16.5893 0.767076L8.61709 14.5687H15.7943Z" fill="#6C9BE3"></path>
</svg><style>@media (prefers-color-scheme: light) { :root { filter: none; } }
@media (prefers-color-scheme: dark) { :root { filter: none; } }
</style></svg>