<svg width="32" height="32" viewBox="0 0 32 32" fill="none" xmlns="http://www.w3.org/2000/svg">
<path d="M28.9925 28.2386H26.6683V5.97613C26.668 5.8099 26.6128 5.64863 26.5117 5.51846C26.4105 5.38829 26.2694 5.29684 26.111 5.25894L13.8115 2.30753C13.7059 2.2802 13.5956 2.27851 13.4893 2.3026C13.383 2.32669 13.2837 2.37589 13.1994 2.44625C13.1139 2.51527 13.0449 2.60317 12.9974 2.70335C12.9499 2.80353 12.9252 2.9134 12.9251 3.02473V8.20001H6.04631C5.85487 8.20001 5.67128 8.27775 5.53591 8.41613C5.40055 8.5545 5.3245 8.74218 5.3245 8.93787V28.2386H3.00751C2.81608 28.2386 2.63248 28.3163 2.49712 28.4547C2.36175 28.5931 2.28571 28.7807 2.28571 28.9764C2.28571 29.1721 2.36175 29.3598 2.49712 29.4982C2.63248 29.6365 2.81608 29.7143 3.00751 29.7143H28.9925C29.1839 29.7143 29.3675 29.6365 29.5029 29.4982C29.6382 29.3598 29.7143 29.1721 29.7143 28.9764C29.7143 28.7807 29.6382 28.5931 29.5029 28.4547C29.3675 28.3163 29.1839 28.2386 28.9925 28.2386ZM14.3687 3.95589L25.2247 6.55608V28.2386H19.0778V8.93787C19.0778 8.74218 19.0017 8.5545 18.8664 8.41613C18.731 8.27775 18.5474 8.20001 18.356 8.20001H14.3687V3.95589ZM6.76811 9.67572H13.6195C13.6296 9.67572 13.6368 9.67572 13.6469 9.67572C13.657 9.67572 13.6657 9.67572 13.6758 9.67572H17.6342V28.2386H6.76811V9.67572ZM21.158 25.9084C21.158 25.7128 21.2341 25.5251 21.3694 25.3867C21.5048 25.2483 21.6884 25.1706 21.8798 25.1706H23.1083C23.2998 25.1706 23.4834 25.2483 23.6187 25.3867C23.7541 25.5251 23.8301 25.7128 23.8301 25.9084C23.8301 26.1041 23.7541 26.2918 23.6187 26.4302C23.4834 26.5686 23.2998 26.6463 23.1083 26.6463H21.8798C21.7847 26.6463 21.6904 26.6271 21.6026 26.5897C21.5147 26.5524 21.435 26.4976 21.3679 26.4286C21.3008 26.3596 21.2477 26.2778 21.2117 26.1877C21.1757 26.0977 21.1574 26.0013 21.158 25.904V25.9084ZM16.2324 25.9084C16.2324 26.1041 16.1564 26.2918 16.021 26.4302C15.8856 26.5686 15.702 26.6463 15.5106 26.6463H14.2835C14.0921 26.6463 13.9085 26.5686 13.7731 26.4302C13.6378 26.2918 13.5617 26.1041 13.5617 25.9084C13.5617 25.7128 13.6378 25.5251 13.7731 25.3867C13.9085 25.2483 14.0921 25.1706 14.2835 25.1706H15.5106C15.7013 25.1706 15.8842 25.2477 16.0195 25.3851C16.1547 25.5226 16.2313 25.7091 16.2324 25.904V25.9084ZM16.2324 22.5025C16.2324 22.6982 16.1564 22.8859 16.021 23.0243C15.8856 23.1626 15.702 23.2404 15.5106 23.2404H14.2835C14.0921 23.2404 13.9085 23.1626 13.7731 23.0243C13.6378 22.8859 13.5617 22.6982 13.5617 22.5025C13.5617 22.3068 13.6378 22.1192 13.7731 21.9808C13.9085 21.8424 14.0921 21.7647 14.2835 21.7647H15.5106C15.7006 21.7647 15.8828 21.8412 16.018 21.9776C16.1531 22.1141 16.2301 22.2995 16.2324 22.4937V22.5025ZM16.2324 19.0966C16.2324 19.2923 16.1564 19.48 16.021 19.6183C15.8856 19.7567 15.702 19.8345 15.5106 19.8345H14.2835C14.0921 19.8345 13.9085 19.7567 13.7731 19.6183C13.6378 19.48 13.5617 19.2923 13.5617 19.0966C13.5617 18.9009 13.6378 18.7132 13.7731 18.5749C13.9085 18.4365 14.0921 18.3587 14.2835 18.3587H15.5106C15.6056 18.3587 15.6997 18.3779 15.7875 18.4152C15.8753 18.4525 15.955 18.5071 16.022 18.5759C16.0891 18.6447 16.1422 18.7264 16.1783 18.8163C16.2144 18.9061 16.2328 19.0024 16.2324 19.0996V19.0966ZM16.2324 15.6907C16.2324 15.8864 16.1564 16.074 16.021 16.2124C15.8856 16.3508 15.702 16.4285 15.5106 16.4285H14.2835C14.0921 16.4285 13.9085 16.3508 13.7731 16.2124C13.6378 16.074 13.5617 15.8864 13.5617 15.6907C13.5617 15.495 13.6378 15.3073 13.7731 15.1689C13.9085 15.0306 14.0921 14.9528 14.2835 14.9528H15.5106C15.7013 14.9528 15.8842 15.03 16.0195 15.1674C16.1547 15.3048 16.2313 15.4913 16.2324 15.6863V15.6907ZM13.5617 12.2848C13.5617 12.0891 13.6378 11.9014 13.7731 11.763C13.9085 11.6246 14.0921 11.5469 14.2835 11.5469H15.5106C15.702 11.5469 15.8856 11.6246 16.021 11.763C16.1564 11.9014 16.2324 12.0891 16.2324 12.2848C16.2324 12.4804 16.1564 12.6681 16.021 12.8065C15.8856 12.9449 15.702 13.0226 15.5106 13.0226H14.2835C14.1884 13.0226 14.0942 13.0034 14.0063 12.966C13.9185 12.9287 13.8387 12.8739 13.7716 12.8049C13.7045 12.736 13.6515 12.6541 13.6154 12.5641C13.5794 12.474 13.5612 12.3776 13.5617 12.2803V12.2848ZM10.842 25.904C10.842 26.0997 10.7659 26.2874 10.6306 26.4258C10.4952 26.5641 10.3116 26.6419 10.1202 26.6419H8.89166C8.70023 26.6419 8.51663 26.5641 8.38127 26.4258C8.2459 26.2874 8.16986 26.0997 8.16986 25.904C8.16986 25.7083 8.2459 25.5207 8.38127 25.3823C8.51663 25.2439 8.70023 25.1662 8.89166 25.1662H10.1202C10.3116 25.1662 10.4952 25.2439 10.6306 25.3823C10.7659 25.5207 10.842 25.7083 10.842 25.904ZM10.842 22.4981C10.842 22.6938 10.7659 22.8815 10.6306 23.0198C10.4952 23.1582 10.3116 23.2359 10.1202 23.2359H8.89166C8.70023 23.2359 8.51663 23.1582 8.38127 23.0198C8.2459 22.8815 8.16986 22.6938 8.16986 22.4981C8.16986 22.3024 8.2459 22.1147 8.38127 21.9764C8.51663 21.838 8.70023 21.7602 8.89166 21.7602H10.1202C10.3109 21.7602 10.4938 21.8374 10.629 21.9748C10.7643 22.1122 10.8408 22.2987 10.842 22.4937V22.4981ZM10.842 19.0922C10.842 19.2879 10.7659 19.4755 10.6306 19.6139C10.4952 19.7523 10.3116 19.83 10.1202 19.83H8.89166C8.70023 19.83 8.51663 19.7523 8.38127 19.6139C8.2459 19.4755 8.16986 19.2879 8.16986 19.0922C8.16986 18.8965 8.2459 18.7088 8.38127 18.5704C8.51663 18.4321 8.70023 18.3543 8.89166 18.3543H10.1202C10.2156 18.3543 10.31 18.3736 10.3981 18.4112C10.4861 18.4487 10.566 18.5037 10.6331 18.573C10.7003 18.6423 10.7533 18.7246 10.7891 18.8149C10.825 18.9053 10.8429 19.002 10.842 19.0996V19.0922ZM10.842 15.6863C10.842 15.8819 10.7659 16.0696 10.6306 16.208C10.4952 16.3464 10.3116 16.4241 10.1202 16.4241H8.89166C8.70023 16.4241 8.51663 16.3464 8.38127 16.208C8.2459 16.0696 8.16986 15.8819 8.16986 15.6863C8.16986 15.4906 8.2459 15.3029 8.38127 15.1645C8.51663 15.0261 8.70023 14.9484 8.89166 14.9484H10.1202C10.215 14.9484 10.3088 14.9675 10.3964 15.0046C10.484 15.0416 10.5635 15.096 10.6306 15.1645C10.6976 15.233 10.7508 15.3144 10.787 15.4039C10.8233 15.4934 10.842 15.5894 10.842 15.6863ZM10.842 12.2803C10.842 12.476 10.7659 12.6637 10.6306 12.8021C10.4952 12.9404 10.3116 13.0182 10.1202 13.0182H8.89166C8.70023 13.0182 8.51663 12.9404 8.38127 12.8021C8.2459 12.6637 8.16986 12.476 8.16986 12.2803C8.16986 12.0846 8.2459 11.897 8.38127 11.7586C8.51663 11.6202 8.70023 11.5425 8.89166 11.5425H10.1202C10.3116 11.5425 10.4952 11.6202 10.6306 11.7586C10.7659 11.897 10.842 12.0846 10.842 12.2803ZM21.158 22.4937C21.158 22.298 21.2341 22.1103 21.3694 21.9719C21.5048 21.8336 21.6884 21.7558 21.8798 21.7558H23.1083C23.2998 21.7558 23.4834 21.8336 23.6187 21.9719C23.7541 22.1103 23.8301 22.298 23.8301 22.4937C23.8301 22.6894 23.7541 22.877 23.6187 23.0154C23.4834 23.1538 23.2998 23.2315 23.1083 23.2315H21.8798C21.6884 23.2315 21.5048 23.1538 21.3694 23.0154C21.2341 22.877 21.158 22.6894 21.158 22.4937ZM21.158 19.0877C21.158 18.8921 21.2341 18.7044 21.3694 18.566C21.5048 18.4276 21.6884 18.3499 21.8798 18.3499H23.1083C23.2998 18.3499 23.4834 18.4276 23.6187 18.566C23.7541 18.7044 23.8301 18.8921 23.8301 19.0877C23.8301 19.2834 23.7541 19.4711 23.6187 19.6095C23.4834 19.7479 23.2998 19.8256 23.1083 19.8256H21.8798C21.6904 19.8256 21.5085 19.7495 21.3735 19.6137C21.2384 19.4778 21.161 19.2932 21.158 19.0996V19.0877ZM21.158 15.6818C21.158 15.4861 21.2341 15.2985 21.3694 15.1601C21.5048 15.0217 21.6884 14.944 21.8798 14.944H23.1083C23.2998 14.944 23.4834 15.0217 23.6187 15.1601C23.7541 15.2985 23.8301 15.4861 23.8301 15.6818C23.8301 15.8775 23.7541 16.0652 23.6187 16.2036C23.4834 16.3419 23.2998 16.4197 23.1083 16.4197H21.8798C21.6891 16.4197 21.5062 16.3426 21.3709 16.2051C21.2357 16.0677 21.1592 15.8812 21.158 15.6863V15.6818ZM21.158 12.2759C21.158 12.0802 21.2341 11.8925 21.3694 11.7542C21.5048 11.6158 21.6884 11.5381 21.8798 11.5381H23.1083C23.2998 11.5381 23.4834 11.6158 23.6187 11.7542C23.7541 11.8925 23.8301 12.0802 23.8301 12.2759C23.8301 12.4716 23.7541 12.6593 23.6187 12.7976C23.4834 12.936 23.2998 13.0138 23.1083 13.0138H21.8798C21.6891 13.0138 21.5062 12.9366 21.3709 12.7992C21.2357 12.6618 21.1592 12.4753 21.158 12.2803V12.2759ZM21.158 8.86998C21.158 8.67429 21.2341 8.48662 21.3694 8.34824C21.5048 8.20987 21.6884 8.13213 21.8798 8.13213H23.1083C23.2998 8.13213 23.4834 8.20987 23.6187 8.34824C23.7541 8.48662 23.8301 8.67429 23.8301 8.86998C23.8301 9.06567 23.7541 9.25335 23.6187 9.39172C23.4834 9.5301 23.2998 9.60783 23.1083 9.60783H21.8798C21.6891 9.60784 21.5062 9.53071 21.3709 9.39329C21.2357 9.25587 21.1592 9.06933 21.158 8.87441V8.86998Z" fill="black"/>
</svg>
