<svg width="32" height="32" viewBox="0 0 32 32" fill="none" xmlns="http://www.w3.org/2000/svg">
<path fill-rule="evenodd" clip-rule="evenodd" d="M26 9.04761C26 12.3613 23.3138 15.0476 20 15.0476C16.6863 15.0476 14 12.3613 14 9.04761C14 5.73391 16.6863 3.04761 20 3.04761C23.3138 3.04761 26 5.73391 26 9.04761ZM20 13.0476C22.2092 13.0476 24 11.2567 24 9.04761C24 6.83847 22.2092 5.04761 20 5.04761C17.7909 5.04761 16 6.83847 16 9.04761C16 11.2567 17.7909 13.0476 20 13.0476Z" fill="black"/>
<path d="M4.25204 25.0476C4.0875 25.6868 4 26.357 4 27.0476H8C8 27.7762 8.19478 28.4592 8.53512 29.0476H4C2.89544 29.0476 2 28.1522 2 27.0476C2 21.5248 6.47716 17.0476 12 17.0476C12.4232 17.0476 12.8402 17.0739 13.2496 17.1249C12.4193 17.6909 11.6637 18.3583 11.0006 19.1094C7.72206 19.518 5.05948 21.9104 4.25204 25.0476Z" fill="black"/>
<path fill-rule="evenodd" clip-rule="evenodd" d="M10 27.0476C10 28.1522 10.8954 29.0476 12 29.0476H28C29.1046 29.0476 30 28.1522 30 27.0476C30 21.5248 25.5228 17.0476 20 17.0476C14.4772 17.0476 10 21.5248 10 27.0476ZM12 27.0476C12 26.357 12.0875 25.6868 12.252 25.0476C13.1401 21.5972 16.2723 19.0476 20 19.0476C23.7276 19.0476 26.8598 21.5972 27.748 25.0476C27.9124 25.6868 28 26.357 28 27.0476H12Z" fill="black"/>
<path d="M12 3.04761C12.7961 3.04761 13.556 3.20267 14.2512 3.48423C13.7636 3.98797 13.3416 4.55561 12.999 5.17337C12.6797 5.09127 12.3449 5.04761 12 5.04761C9.79086 5.04761 8 6.83847 8 9.04761C8 11.2567 9.79086 13.0476 12 13.0476C12.3449 13.0476 12.6797 13.0039 12.999 12.9218C13.3416 13.5396 13.7636 14.1072 14.2512 14.611C13.556 14.8925 12.7961 15.0476 12 15.0476C8.6863 15.0476 6 12.3613 6 9.04761C6 5.73391 8.6863 3.04761 12 3.04761Z" fill="black"/>
</svg>
