<svg width="32" height="32" viewBox="0 0 32 32" fill="none" xmlns="http://www.w3.org/2000/svg">
<path fill-rule="evenodd" clip-rule="evenodd" d="M22.0952 9.04761C22.0952 12.3613 19.409 15.0476 16.0952 15.0476C12.7815 15.0476 10.0952 12.3613 10.0952 9.04761C10.0952 5.73391 12.7815 3.04761 16.0952 3.04761C19.409 3.04761 22.0952 5.73391 22.0952 9.04761ZM16.0952 13.0476C18.3044 13.0476 20.0952 11.2567 20.0952 9.04761C20.0952 6.83847 18.3044 5.04761 16.0952 5.04761C13.8861 5.04761 12.0952 6.83847 12.0952 9.04761C12.0952 11.2567 13.8861 13.0476 16.0952 13.0476Z" fill="black"/>
<path fill-rule="evenodd" clip-rule="evenodd" d="M6.09521 27.0476C6.09521 28.1522 6.99065 29.0476 8.09521 29.0476H24.0952C25.1998 29.0476 26.0952 28.1522 26.0952 27.0476C26.0952 21.5248 21.618 17.0476 16.0952 17.0476C10.5724 17.0476 6.09521 21.5248 6.09521 27.0476ZM8.09521 27.0476C8.09521 26.357 8.18271 25.6868 8.34725 25.0476C9.23533 21.5972 12.3675 19.0476 16.0952 19.0476C19.8228 19.0476 22.955 21.5972 23.8432 25.0476C24.0076 25.6868 24.0952 26.357 24.0952 27.0476H8.09521Z" fill="black"/>
</svg>
